# xmcd
#
# Track frame offsets: 
#        150
#        14562
#        28772
#        43110
#        56632
#        69690
#        83737
#        97152
#        110107
#        123325
#        136762
#        148682
#        163507
#        175130
#        189960
#        204662
#        217290
#        230005
#        243315
#        256832
#        269572
#        280122
#        293877
#
# Disc length: 4112 seconds
#
# Revision: 2
# Processed by: cddbd v1.5.2PL0 Copyright (c) Steve Scherf et al.
# Submitted via: ExactAudioCopy v1.0b1
#
DISCID=67100e17
DTITLE=Tampa Red - Complete Recorded Works Chronological Order Vol. 14
DYEAR=2007
DGENRE=Blues
TTITLE0=Casey Brown Blues (mono)
TTITLE1=Mr. Charley (mono)
TTITLE2=Down Behind The Rise (mono)
TTITLE3=It's A Brand New Boogey (mono)
TTITLE4=Come On, If Your Coming (mono)
TTITLE5=Please Try To See It My Way (mono)
TTITLE6=When Things Go Wrong With You (mono)
TTITLE7=Put Your Money Where Your Mouth Is (mono)
TTITLE8=That's Her Own Business (mono)
TTITLE9=It's Too Late Now (mono)
TTITLE10=I'll Find My Way (mono)
TTITLE11=1950 Blues (mono)
TTITLE12=It's Good Like That (mono)
TTITLE13=Love Her With A Feelin' (mono)
TTITLE14=New Deal Blues (mono)
TTITLE15=Midnight Boogie (mono)
TTITLE16=Don't Blame Shorty For That (mono)
TTITLE17=I Miss My Lovin' Blues (mono)
TTITLE18=Sweet Little Angel (mono)
TTITLE19=Since My Baby's Been Gone (mono)
TTITLE20=She's Dynamite (mono)
TTITLE21=Pretty Baby Blues (mono)
TTITLE22=Early In The Morning (mono)
EXTD=Complete recorded works chronological order vol. 14  26 january 1
EXTD=949 to 20 march 1951
EXTT0=
EXTT1=
EXTT2=
EXTT3=
EXTT4=
EXTT5=
EXTT6=
EXTT7=
EXTT8=
EXTT9=
EXTT10=
EXTT11=
EXTT12=
EXTT13=
EXTT14=
EXTT15=
EXTT16=
EXTT17=
EXTT18=
EXTT19=
EXTT20=
EXTT21=
EXTT22=
PLAYORDER=
